# Blender 5.0.0
# www.blender.org
mtllib Arm.mtl
o Cylinder
v 0.000000 0.005000 -0.030000
v 0.000000 0.205000 -0.030000
v 0.008452 0.005000 -0.028785
v 0.008452 0.205000 -0.028785
v 0.016219 0.005000 -0.025238
v 0.016219 0.205000 -0.025238
v 0.022672 0.005000 -0.019646
v 0.022672 0.205000 -0.019646
v 0.027289 0.005000 -0.012462
v 0.027289 0.205000 -0.012462
v 0.029695 0.005000 -0.004269
v 0.029695 0.205000 -0.004269
v 0.029695 0.005000 0.004269
v 0.029695 0.205000 0.004269
v 0.027289 0.005000 0.012462
v 0.027289 0.205000 0.012462
v 0.022672 0.005000 0.019646
v 0.022672 0.205000 0.019646
v 0.016219 0.005000 0.025238
v 0.016219 0.205000 0.025238
v 0.008452 0.005000 0.028785
v 0.008452 0.205000 0.028785
v 0.000000 0.005000 0.030000
v 0.000000 0.205000 0.030000
v -0.008452 0.005000 0.028785
v -0.008452 0.205000 0.028785
v -0.016219 0.005000 0.025238
v -0.016219 0.205000 0.025238
v -0.022672 0.005000 0.019646
v -0.022672 0.205000 0.019646
v -0.027289 0.005000 0.012462
v -0.027289 0.205000 0.012462
v -0.029695 0.005000 0.004269
v -0.029695 0.205000 0.004269
v -0.029695 0.005000 -0.004269
v -0.029695 0.205000 -0.004269
v -0.027289 0.005000 -0.012462
v -0.027289 0.205000 -0.012462
v -0.022672 0.005000 -0.019646
v -0.022672 0.205000 -0.019646
v -0.016219 0.005000 -0.025238
v -0.016219 0.205000 -0.025238
v -0.008452 0.005000 -0.028785
v -0.008452 0.205000 -0.028785
v -0.000000 0.015000 -0.027000
v -0.000000 0.195000 -0.027000
v 0.007607 0.015000 -0.025906
v 0.007607 0.195000 -0.025906
v 0.014597 0.015000 -0.022714
v 0.014597 0.195000 -0.022714
v 0.020405 0.015000 -0.017681
v 0.020405 0.195000 -0.017681
v 0.024560 0.015000 -0.011216
v 0.024560 0.195000 -0.011216
v 0.026725 0.015000 -0.003843
v 0.026725 0.195000 -0.003843
v 0.026725 0.015000 0.003843
v 0.026725 0.195000 0.003843
v 0.024560 0.015000 0.011216
v 0.024560 0.195000 0.011216
v 0.020405 0.015000 0.017681
v 0.020405 0.195000 0.017681
v 0.014597 0.015000 0.022714
v 0.014597 0.195000 0.022714
v 0.007607 0.015000 0.025906
v 0.007607 0.195000 0.025906
v -0.000000 0.015000 0.027000
v -0.000000 0.195000 0.027000
v -0.007607 0.015000 0.025906
v -0.007607 0.195000 0.025906
v -0.014597 0.015000 0.022714
v -0.014597 0.195000 0.022714
v -0.020405 0.015000 0.017681
v -0.020405 0.195000 0.017681
v -0.024560 0.015000 0.011216
v -0.024560 0.195000 0.011216
v -0.026725 0.015000 0.003843
v -0.026725 0.195000 0.003843
v -0.026725 0.015000 -0.003843
v -0.026725 0.195000 -0.003843
v -0.024560 0.015000 -0.011216
v -0.024560 0.195000 -0.011216
v -0.020405 0.015000 -0.017681
v -0.020405 0.195000 -0.017681
v -0.014597 0.015000 -0.022714
v -0.014597 0.195000 -0.022714
v -0.007607 0.015000 -0.025906
v -0.007607 0.195000 -0.025906
v 0.000000 0.000134 -0.031152
v -0.000000 0.209866 -0.031152
v 0.008777 0.000134 -0.029890
v 0.008777 0.209866 -0.029890
v 0.016842 0.000134 -0.026207
v 0.016842 0.209866 -0.026207
v 0.023543 0.000134 -0.020400
v 0.023543 0.209866 -0.020400
v 0.028337 0.000134 -0.012941
v 0.028337 0.209866 -0.012941
v 0.030835 0.000134 -0.004433
v 0.030835 0.209866 -0.004433
v 0.030835 0.000134 0.004433
v 0.030835 0.209866 0.004433
v 0.028337 0.000134 0.012941
v 0.028337 0.209866 0.012941
v 0.023543 0.000134 0.020400
v 0.023543 0.209866 0.020400
v 0.016842 0.000134 0.026207
v 0.016842 0.209866 0.026207
v 0.008777 0.000134 0.029890
v 0.008777 0.209866 0.029890
v -0.000000 0.000134 0.031152
v 0.000000 0.209866 0.031152
v -0.008777 0.000134 0.029890
v -0.008777 0.209866 0.029890
v -0.016842 0.000134 0.026207
v -0.016842 0.209866 0.026207
v -0.023543 0.000134 0.020400
v -0.023543 0.209866 0.020400
v -0.028337 0.000134 0.012941
v -0.028337 0.209866 0.012941
v -0.030835 0.000134 0.004433
v -0.030835 0.209866 0.004433
v -0.030835 0.000134 -0.004433
v -0.030835 0.209866 -0.004433
v -0.028337 0.000134 -0.012941
v -0.028337 0.209866 -0.012941
v -0.023543 0.000134 -0.020400
v -0.023543 0.209866 -0.020400
v -0.016842 0.000134 -0.026207
v -0.016842 0.209866 -0.026207
v -0.008777 0.000134 -0.029890
v -0.008777 0.209866 -0.029890
v 0.000000 0.012391 -0.022735
v -0.000000 0.195736 -0.022054
v 0.006405 0.012391 -0.021814
v 0.006213 0.195736 -0.021161
v 0.012291 0.012391 -0.019126
v 0.011924 0.195736 -0.018553
v 0.017182 0.012391 -0.014888
v 0.016668 0.195736 -0.014443
v 0.020680 0.012391 -0.009444
v 0.020061 0.195736 -0.009162
v 0.022503 0.012391 -0.003236
v 0.021830 0.195736 -0.003139
v 0.022503 0.012391 0.003236
v 0.021830 0.195736 0.003139
v 0.020680 0.012391 0.009444
v 0.020061 0.195736 0.009162
v 0.017182 0.012391 0.014888
v 0.016668 0.195736 0.014443
v 0.012291 0.012391 0.019126
v 0.011924 0.195736 0.018553
v 0.006405 0.012391 0.021814
v 0.006213 0.195736 0.021161
v -0.000000 0.012391 0.022735
v 0.000000 0.195736 0.022054
v -0.006405 0.012391 0.021814
v -0.006213 0.195736 0.021161
v -0.012291 0.012391 0.019126
v -0.011924 0.195736 0.018553
v -0.017182 0.012391 0.014888
v -0.016668 0.195736 0.014443
v -0.020680 0.012391 0.009444
v -0.020061 0.195736 0.009162
v -0.022503 0.012391 0.003236
v -0.021830 0.195736 0.003139
v -0.022503 0.012391 -0.003236
v -0.021830 0.195736 -0.003139
v -0.020680 0.012391 -0.009444
v -0.020061 0.195736 -0.009162
v -0.017182 0.012391 -0.014888
v -0.016668 0.195736 -0.014443
v -0.012291 0.012391 -0.019126
v -0.011924 0.195736 -0.018553
v -0.006405 0.012391 -0.021814
v -0.006213 0.195736 -0.021161
vn -0.1423 -0.0000 0.9898
vn -0.4154 -0.0000 0.9096
vn -0.6549 -0.0000 0.7557
vn -0.8413 -0.0000 0.5406
vn -0.9595 -0.0000 0.2817
vn -1.0000 -0.0000 -0.0000
vn -0.9595 -0.0000 -0.2817
vn -0.8413 -0.0000 -0.5406
vn -0.6549 -0.0000 -0.7557
vn -0.4154 -0.0000 -0.9096
vn -0.1423 -0.0000 -0.9898
vn 0.1423 -0.0000 -0.9898
vn 0.4154 -0.0000 -0.9096
vn 0.6549 -0.0000 -0.7557
vn 0.8413 -0.0000 -0.5406
vn 0.9595 -0.0000 -0.2817
vn 1.0000 -0.0000 -0.0000
vn 0.9595 -0.0000 0.2817
vn 0.8413 -0.0000 0.5406
vn 0.6549 -0.0000 0.7557
vn 0.4154 -0.0000 0.9096
vn 0.1423 -0.0000 0.9898
vn -0.1364 0.2847 0.9489
vn -0.3982 0.2847 -0.8720
vn 0.6278 -0.2847 -0.7245
vn -0.1364 -0.2847 0.9489
vn -0.3982 -0.2847 -0.8720
vn 0.8064 0.2847 0.5183
vn -0.9586 0.2847 -0.0000
vn 0.8064 -0.2847 0.5183
vn -0.9586 -0.2847 -0.0000
vn 0.8064 0.2847 -0.5183
vn -0.3982 0.2847 0.8720
vn -0.1364 0.2847 -0.9489
vn 0.8064 -0.2847 -0.5183
vn -0.3982 -0.2847 0.8720
vn -0.1364 -0.2847 -0.9489
vn 0.6278 0.2847 0.7245
vn -0.9198 0.2847 -0.2701
vn 0.6278 -0.2847 0.7245
vn -0.9198 -0.2847 -0.2701
vn 0.9198 0.2847 -0.2701
vn -0.6278 0.2847 0.7245
vn 0.1364 0.2847 -0.9489
vn 0.9198 -0.2847 -0.2701
vn -0.6278 -0.2847 0.7245
vn 0.3982 0.2847 0.8720
vn -0.8064 0.2847 -0.5183
vn 0.1364 -0.2847 -0.9489
vn 0.3982 -0.2847 0.8720
vn -0.8064 -0.2847 -0.5183
vn 0.9586 0.2847 -0.0000
vn -0.8064 0.2847 0.5183
vn 0.9586 -0.2847 -0.0000
vn -0.8064 -0.2847 0.5183
vn 0.3982 0.2847 -0.8720
vn 0.1364 0.2847 0.9489
vn -0.6278 0.2847 -0.7245
vn 0.3982 -0.2847 -0.8720
vn 0.1364 -0.2847 0.9489
vn -0.6278 -0.2847 -0.7245
vn 0.9198 0.2847 0.2701
vn -0.9198 0.2847 0.2701
vn 0.9198 -0.2847 0.2701
vn -0.9198 -0.2847 0.2701
vn 0.6278 0.2847 -0.7245
vn -0.0000 1.0000 -0.0000
vn -0.1423 -0.0037 0.9898
vn -0.4154 -0.0037 0.9096
vn -0.6549 -0.0037 0.7557
vn -0.8412 -0.0037 0.5406
vn -0.9595 -0.0037 0.2817
vn -1.0000 -0.0037 -0.0000
vn -0.9595 -0.0037 -0.2817
vn -0.8412 -0.0037 -0.5406
vn -0.6549 -0.0037 -0.7557
vn -0.4154 -0.0037 -0.9096
vn -0.1423 -0.0037 -0.9898
vn 0.1423 -0.0037 -0.9898
vn 0.4154 -0.0037 -0.9096
vn 0.6549 -0.0037 -0.7557
vn 0.8412 -0.0037 -0.5406
vn 0.9595 -0.0037 -0.2817
vn 1.0000 -0.0037 -0.0000
vn 0.9595 -0.0037 0.2817
vn 0.8412 -0.0037 0.5406
vn 0.6549 -0.0037 0.7557
vn 0.4154 -0.0037 0.9096
vn 0.1423 -0.0037 0.9898
vn 0.1177 -0.5622 -0.8186
vn 0.3436 -0.5622 0.7523
vn -0.5522 0.5374 0.6373
vn 0.1200 0.5374 -0.8347
vn 0.3503 0.5374 0.7671
vn -0.6957 -0.5622 -0.4471
vn 0.8270 -0.5622 -0.0000
vn -0.7094 0.5374 -0.4559
vn 0.8433 0.5374 -0.0000
vn -0.6957 -0.5622 0.4471
vn 0.3436 -0.5622 -0.7523
vn 0.1177 -0.5622 0.8186
vn -0.7094 0.5374 0.4559
vn 0.3503 0.5374 -0.7671
vn 0.1200 0.5374 0.8347
vn -0.5416 -0.5622 -0.6250
vn 0.7935 -0.5622 0.2330
vn -0.5522 0.5374 -0.6373
vn 0.8091 0.5374 0.2376
vn -0.7935 -0.5622 0.2330
vn 0.5416 -0.5622 -0.6250
vn -0.1177 -0.5622 0.8186
vn -0.8091 0.5374 0.2376
vn 0.5522 0.5374 -0.6373
vn -0.3436 -0.5622 -0.7523
vn 0.6957 -0.5622 0.4471
vn -0.1200 0.5374 0.8347
vn -0.3503 0.5374 -0.7671
vn 0.7094 0.5374 0.4559
vn -0.8270 -0.5622 -0.0000
vn 0.6957 -0.5622 -0.4471
vn -0.8433 0.5374 -0.0000
vn 0.7094 0.5374 -0.4559
vn -0.3436 -0.5622 0.7523
vn -0.1177 -0.5622 -0.8186
vn 0.5416 -0.5622 0.6250
vn -0.3503 0.5374 0.7671
vn -0.1200 0.5374 -0.8347
vn 0.5522 0.5374 0.6373
vn -0.7935 -0.5622 -0.2330
vn 0.7935 -0.5622 -0.2330
vn -0.8091 0.5374 -0.2376
vn 0.8091 0.5374 -0.2376
vn -0.5416 -0.5622 0.6250
vn -0.0000 -1.0000 -0.0000
vt 0.356537 0.482580
vt 0.339834 0.481104
vt 0.339834 0.020484
vt 0.356537 0.021961
vt 0.326832 0.479040
vt 0.326832 0.018420
vt 0.135785 0.479040
vt 0.122783 0.481104
vt 0.122783 0.020484
vt 0.135785 0.018420
vt 0.106081 0.482580
vt 0.106081 0.021961
vt 0.087030 0.483350
vt 0.087030 0.022730
vt 0.067176 0.483350
vt 0.067176 0.022730
vt 0.048125 0.482580
vt 0.048125 0.021961
vt 0.031422 0.481104
vt 0.031422 0.020484
vt 0.018420 0.479040
vt 0.018420 0.018420
vt 0.572399 0.479040
vt 0.559397 0.481104
vt 0.559397 0.020484
vt 0.572399 0.018420
vt 0.542694 0.482580
vt 0.542694 0.021961
vt 0.523644 0.483350
vt 0.523644 0.022730
vt 0.503789 0.483350
vt 0.503789 0.022730
vt 0.484739 0.482580
vt 0.484739 0.021961
vt 0.468036 0.481104
vt 0.468036 0.020484
vt 0.949603 0.479809
vt 0.930552 0.479040
vt 0.930552 0.018420
vt 0.949603 0.019190
vt 0.910698 0.479040
vt 0.910698 0.018420
vt 0.891647 0.479809
vt 0.891647 0.019190
vt 0.431195 0.481104
vt 0.414492 0.482580
vt 0.414492 0.021961
vt 0.431195 0.020484
vt 0.395442 0.483350
vt 0.395442 0.022730
vt 0.375587 0.483350
vt 0.375587 0.022730
vt 0.641842 0.457651
vt 0.641842 0.043094
vt 0.658988 0.042401
vt 0.658988 0.456959
vt 0.676857 0.042401
vt 0.676857 0.456959
vt 0.694002 0.043094
vt 0.694002 0.457651
vt 0.709035 0.044422
vt 0.709035 0.458980
vt 0.192227 0.956906
vt 0.192227 0.542349
vt 0.209372 0.543041
vt 0.209372 0.957599
vt 0.227241 0.543041
vt 0.227241 0.957599
vt 0.244387 0.542349
vt 0.244387 0.956906
vt 0.755012 0.458980
vt 0.755012 0.044422
vt 0.770044 0.043094
vt 0.770044 0.457651
vt 0.787189 0.042401
vt 0.787189 0.456959
vt 0.805059 0.042401
vt 0.805059 0.456959
vt 0.822204 0.043094
vt 0.822204 0.457651
vt 0.837236 0.044422
vt 0.837236 0.458980
vt 0.848938 0.046280
vt 0.848938 0.460838
vt 0.178495 0.460838
vt 0.178495 0.046280
vt 0.190196 0.044422
vt 0.190196 0.458980
vt 0.205229 0.043094
vt 0.205229 0.457651
vt 0.222374 0.042401
vt 0.222374 0.456959
vt 0.240243 0.042401
vt 0.240243 0.456959
vt 0.257389 0.043094
vt 0.257389 0.457651
vt 0.272421 0.044422
vt 0.272421 0.458980
vt 0.284123 0.046280
vt 0.284123 0.460838
vt 0.615108 0.460838
vt 0.615108 0.046280
vt 0.626810 0.044422
vt 0.626810 0.458980
vt 0.841804 0.481286
vt 0.825102 0.479809
vt 0.622242 0.481286
vt 0.609240 0.483350
vt 0.677850 0.018420
vt 0.696900 0.019190
vt 0.825102 0.019190
vt 0.841804 0.020666
vt 0.609240 0.022730
vt 0.622242 0.020666
vt 0.263987 0.979334
vt 0.247284 0.980810
vt 0.259419 0.955577
vt 0.241236 0.479040
vt 0.221381 0.479040
vt 0.750444 0.020666
vt 0.767146 0.019190
vt 0.221381 0.018420
vt 0.241236 0.018420
vt 0.189329 0.980810
vt 0.172626 0.979334
vt 0.177194 0.955577
vt 0.854806 0.483350
vt 0.638945 0.479809
vt 0.713603 0.020666
vt 0.854806 0.022730
vt 0.638945 0.019190
vt 0.786197 0.479040
vt 0.767146 0.479809
vt 0.260286 0.479809
vt 0.786197 0.018420
vt 0.260286 0.019190
vt 0.208379 0.981579
vt 0.185628 0.481286
vt 0.172626 0.483350
vt 0.657995 0.479040
vt 0.189329 0.520191
vt 0.208379 0.520960
vt 0.172626 0.022730
vt 0.185628 0.020666
vt 0.806051 0.479040
vt 0.276989 0.481286
vt 0.657995 0.018420
vt 0.806051 0.018420
vt 0.276989 0.020666
vt 0.228234 0.981579
vt 0.202331 0.479809
vt 0.228234 0.520960
vt 0.202331 0.019190
vt 0.677850 0.479040
vt 0.289991 0.483350
vt 0.289991 0.022730
vt 0.247284 0.520191
vt 0.696900 0.479809
vt 0.362970 0.645751
vt 0.345282 0.643208
vt 0.329028 0.635785
vt 0.315523 0.624083
vt 0.305862 0.609051
vt 0.300828 0.591906
vt 0.300828 0.574036
vt 0.305862 0.556891
vt 0.315523 0.541859
vt 0.329028 0.530157
vt 0.345282 0.522734
vt 0.362970 0.520191
vt 0.380657 0.522734
vt 0.396911 0.530157
vt 0.410416 0.541859
vt 0.420077 0.556891
vt 0.425111 0.574036
vt 0.425111 0.591906
vt 0.420077 0.609051
vt 0.410416 0.624083
vt 0.396911 0.635785
vt 0.380657 0.643208
s 0
usemtl Material.002
f 1/1/1 3/2/1 4/3/1 2/4/1
f 3/2/2 5/5/2 6/6/2 4/3/2
f 5/7/3 7/8/3 8/9/3 6/10/3
f 7/8/4 9/11/4 10/12/4 8/9/4
f 9/11/5 11/13/5 12/14/5 10/12/5
f 11/13/6 13/15/6 14/16/6 12/14/6
f 13/15/7 15/17/7 16/18/7 14/16/7
f 15/17/8 17/19/8 18/20/8 16/18/8
f 17/19/9 19/21/9 20/22/9 18/20/9
f 19/23/10 21/24/10 22/25/10 20/26/10
f 21/24/11 23/27/11 24/28/11 22/25/11
f 23/27/12 25/29/12 26/30/12 24/28/12
f 25/29/13 27/31/13 28/32/13 26/30/13
f 27/31/14 29/33/14 30/34/14 28/32/14
f 29/33/15 31/35/15 32/36/15 30/34/15
f 31/37/16 33/38/16 34/39/16 32/40/16
f 33/38/17 35/41/17 36/42/17 34/39/17
f 35/41/18 37/43/18 38/44/18 36/42/18
f 37/45/19 39/46/19 40/47/19 38/48/19
f 39/46/20 41/49/20 42/50/20 40/47/20
f 41/49/21 43/51/21 44/52/21 42/50/21
f 43/51/22 1/1/22 2/4/22 44/52/22
f 45/53/12 46/54/12 48/55/12 47/56/12
f 47/56/13 48/55/13 50/57/13 49/58/13
f 49/58/14 50/57/14 52/59/14 51/60/14
f 51/60/15 52/59/15 54/61/15 53/62/15
f 53/63/16 54/64/16 56/65/16 55/66/16
f 55/66/17 56/65/17 58/67/17 57/68/17
f 57/68/18 58/67/18 60/69/18 59/70/18
f 59/71/19 60/72/19 62/73/19 61/74/19
f 61/74/20 62/73/20 64/75/20 63/76/20
f 63/76/21 64/75/21 66/77/21 65/78/21
f 65/78/22 66/77/22 68/79/22 67/80/22
f 67/80/1 68/79/1 70/81/1 69/82/1
f 69/82/2 70/81/2 72/83/2 71/84/2
f 71/85/3 72/86/3 74/87/3 73/88/3
f 73/88/4 74/87/4 76/89/4 75/90/4
f 75/90/5 76/89/5 78/91/5 77/92/5
f 77/92/6 78/91/6 80/93/6 79/94/6
f 79/94/7 80/93/7 82/95/7 81/96/7
f 81/96/8 82/95/8 84/97/8 83/98/8
f 83/98/9 84/97/9 86/99/9 85/100/9
f 85/101/10 86/102/10 88/103/10 87/104/10
f 87/104/11 88/103/11 46/54/11 45/53/11
f 25/105/23 23/106/23 67/80/23 69/82/23
f 43/107/24 41/108/24 85/101/24 87/104/24
f 6/109/25 8/110/25 52/59/25 50/57/25
f 24/111/26 26/112/26 70/81/26 68/79/26
f 42/113/27 44/114/27 88/103/27 86/102/27
f 17/115/28 15/116/28 59/70/28 61/117/28
f 35/118/29 33/119/29 77/92/29 79/94/29
f 16/120/30 18/121/30 62/73/30 60/72/30
f 34/122/31 36/123/31 80/93/31 78/91/31
f 9/124/32 7/125/32 51/126/32 53/63/32
f 27/127/33 25/105/33 69/82/33 71/84/33
f 1/128/34 43/107/34 87/104/34 45/53/34
f 8/110/35 10/129/35 54/61/35 52/59/35
f 26/112/36 28/130/36 72/83/36 70/81/36
f 44/114/37 2/131/37 46/54/37 88/103/37
f 19/132/38 17/133/38 61/74/38 63/76/38
f 37/134/39 35/118/39 79/94/39 81/96/39
f 18/121/40 20/135/40 64/75/40 62/73/40
f 36/123/41 38/136/41 82/95/41 80/93/41
f 11/137/42 9/124/42 53/63/42 55/66/42
f 29/138/43 27/139/43 71/85/43 73/88/43
f 3/140/44 1/128/44 45/53/44 47/56/44
f 10/141/45 12/142/45 56/65/45 54/64/45
f 28/143/46 30/144/46 74/87/46 72/86/46
f 21/145/47 19/132/47 63/76/47 65/78/47
f 39/146/48 37/134/48 81/96/48 83/98/48
f 2/131/49 4/147/49 48/55/49 46/54/49
f 20/135/50 22/148/50 66/77/50 64/75/50
f 38/136/51 40/149/51 84/97/51 82/95/51
f 13/150/52 11/137/52 55/66/52 57/68/52
f 31/151/53 29/138/53 73/88/53 75/90/53
f 12/142/54 14/152/54 58/67/54 56/65/54
f 30/144/55 32/153/55 76/89/55 74/87/55
f 5/154/56 3/140/56 47/56/56 49/58/56
f 23/106/57 21/145/57 65/78/57 67/80/57
f 41/155/58 39/146/58 83/98/58 85/100/58
f 4/147/59 6/109/59 50/57/59 48/55/59
f 22/148/60 24/111/60 68/79/60 66/77/60
f 40/149/61 42/156/61 86/99/61 84/97/61
f 15/116/62 13/150/62 57/68/62 59/70/62
f 33/119/63 31/151/63 75/90/63 77/92/63
f 14/152/64 16/157/64 60/69/64 58/67/64
f 32/153/65 34/122/65 78/91/65 76/89/65
f 7/158/66 5/154/66 49/58/66 51/60/66
f 49/159/67 47/160/67 45/161/67 87/162/67 85/163/67 83/164/67 81/165/67 79/166/67 77/167/67 75/168/67 73/169/67 71/170/67 69/171/67 67/172/67 65/173/67 63/174/67 61/175/67 59/176/67 57/177/67 55/178/67 53/179/67 51/180/67
f 89/1/12 90/4/12 92/3/12 91/2/12
f 91/2/13 92/3/13 94/6/13 93/5/13
f 93/7/14 94/10/14 96/9/14 95/8/14
f 95/8/15 96/9/15 98/12/15 97/11/15
f 97/11/16 98/12/16 100/14/16 99/13/16
f 99/13/17 100/14/17 102/16/17 101/15/17
f 101/15/18 102/16/18 104/18/18 103/17/18
f 103/17/19 104/18/19 106/20/19 105/19/19
f 105/19/20 106/20/20 108/22/20 107/21/20
f 107/23/21 108/26/21 110/25/21 109/24/21
f 109/24/22 110/25/22 112/28/22 111/27/22
f 111/27/1 112/28/1 114/30/1 113/29/1
f 113/29/2 114/30/2 116/32/2 115/31/2
f 115/31/3 116/32/3 118/34/3 117/33/3
f 117/33/4 118/34/4 120/36/4 119/35/4
f 119/37/5 120/40/5 122/39/5 121/38/5
f 121/38/6 122/39/6 124/42/6 123/41/6
f 123/41/7 124/42/7 126/44/7 125/43/7
f 125/45/8 126/48/8 128/47/8 127/46/8
f 127/46/9 128/47/9 130/50/9 129/49/9
f 129/49/10 130/50/10 132/52/10 131/51/10
f 131/51/11 132/52/11 90/4/11 89/1/11
f 133/53/68 135/56/68 136/55/68 134/54/68
f 135/56/69 137/58/69 138/57/69 136/55/69
f 137/58/70 139/60/70 140/59/70 138/57/70
f 139/60/71 141/62/71 142/61/71 140/59/71
f 141/63/72 143/66/72 144/65/72 142/64/72
f 143/66/73 145/68/73 146/67/73 144/65/73
f 145/68/74 147/70/74 148/69/74 146/67/74
f 147/71/75 149/74/75 150/73/75 148/72/75
f 149/74/76 151/76/76 152/75/76 150/73/76
f 151/76/77 153/78/77 154/77/77 152/75/77
f 153/78/78 155/80/78 156/79/78 154/77/78
f 155/80/79 157/82/79 158/81/79 156/79/79
f 157/82/80 159/84/80 160/83/80 158/81/80
f 159/85/81 161/88/81 162/87/81 160/86/81
f 161/88/82 163/90/82 164/89/82 162/87/82
f 163/90/83 165/92/83 166/91/83 164/89/83
f 165/92/84 167/94/84 168/93/84 166/91/84
f 167/94/85 169/96/85 170/95/85 168/93/85
f 169/96/86 171/98/86 172/97/86 170/95/86
f 171/98/87 173/100/87 174/99/87 172/97/87
f 173/101/88 175/104/88 176/103/88 174/102/88
f 175/104/89 133/53/89 134/54/89 176/103/89
f 113/105/90 157/82/90 155/80/90 111/106/90
f 131/107/91 175/104/91 173/101/91 129/108/91
f 94/109/92 138/57/92 140/59/92 96/110/92
f 112/111/93 156/79/93 158/81/93 114/112/93
f 130/113/94 174/102/94 176/103/94 132/114/94
f 105/115/95 149/117/95 147/70/95 103/116/95
f 123/118/96 167/94/96 165/92/96 121/119/96
f 104/120/97 148/72/97 150/73/97 106/121/97
f 122/122/98 166/91/98 168/93/98 124/123/98
f 97/124/99 141/63/99 139/126/99 95/125/99
f 115/127/100 159/84/100 157/82/100 113/105/100
f 89/128/101 133/53/101 175/104/101 131/107/101
f 96/110/102 140/59/102 142/61/102 98/129/102
f 114/112/103 158/81/103 160/83/103 116/130/103
f 132/114/104 176/103/104 134/54/104 90/131/104
f 107/132/105 151/76/105 149/74/105 105/133/105
f 125/134/106 169/96/106 167/94/106 123/118/106
f 106/121/107 150/73/107 152/75/107 108/135/107
f 124/123/108 168/93/108 170/95/108 126/136/108
f 99/137/109 143/66/109 141/63/109 97/124/109
f 117/138/110 161/88/110 159/85/110 115/139/110
f 91/140/111 135/56/111 133/53/111 89/128/111
f 98/141/112 142/64/112 144/65/112 100/142/112
f 116/143/113 160/86/113 162/87/113 118/144/113
f 109/145/114 153/78/114 151/76/114 107/132/114
f 127/146/115 171/98/115 169/96/115 125/134/115
f 90/131/116 134/54/116 136/55/116 92/147/116
f 108/135/117 152/75/117 154/77/117 110/148/117
f 126/136/118 170/95/118 172/97/118 128/149/118
f 101/150/119 145/68/119 143/66/119 99/137/119
f 119/151/120 163/90/120 161/88/120 117/138/120
f 100/142/121 144/65/121 146/67/121 102/152/121
f 118/144/122 162/87/122 164/89/122 120/153/122
f 93/154/123 137/58/123 135/56/123 91/140/123
f 111/106/124 155/80/124 153/78/124 109/145/124
f 129/155/125 173/100/125 171/98/125 127/146/125
f 92/147/126 136/55/126 138/57/126 94/109/126
f 110/148/127 154/77/127 156/79/127 112/111/127
f 128/149/128 172/97/128 174/99/128 130/156/128
f 103/116/129 147/70/129 145/68/129 101/150/129
f 121/119/130 165/92/130 163/90/130 119/151/130
f 102/152/131 146/67/131 148/69/131 104/157/131
f 120/153/132 164/89/132 166/91/132 122/122/132
f 95/158/133 139/60/133 137/58/133 93/154/133
f 137/159/134 139/180/134 141/179/134 143/178/134 145/177/134 147/176/134 149/175/134 151/174/134 153/173/134 155/172/134 157/171/134 159/170/134 161/169/134 163/168/134 165/167/134 167/166/134 169/165/134 171/164/134 173/163/134 175/162/134 133/161/134 135/160/134
