# Blender 5.0.0
# www.blender.org
mtllib Thrower.mtl.mtl
o Cube
v -0.500000 0.000000 1.500000
v -0.500000 2.000000 1.500000
v -0.500000 0.000000 -1.500000
v -0.500000 2.000000 -1.500000
v 0.500000 0.000000 -1.500000
v 0.500000 2.000000 -1.500000
v 0.500000 0.000000 1.500000
v 0.500000 2.000000 1.500000
v -0.500000 1.000000 1.500000
v -0.500000 1.000000 -1.500000
v -0.500000 1.500000 1.500000
v -0.500000 1.500000 -1.500000
v -0.500000 1.000000 1.312500
v -0.500000 1.000000 -1.312500
v -0.500000 1.500000 1.312500
v -0.500000 1.500000 -1.312500
v -0.400000 1.000000 1.312500
v -0.400000 1.000000 -1.312500
v -0.400000 1.500000 1.312500
v -0.400000 1.500000 -1.312500
vn -0.0000 -0.0000 -1.0000
vn -0.0000 -0.0000 1.0000
vn -1.0000 -0.0000 -0.0000
vn 1.0000 -0.0000 -0.0000
vn -0.0000 -1.0000 -0.0000
vn -0.0000 1.0000 -0.0000
vt 0.513221 0.552683
vt 0.513221 0.505618
vt 0.513221 0.458553
vt 0.607351 0.458553
vt 0.607351 0.646812
vt 0.513221 0.646812
vt 0.701480 0.234439
vt 0.701480 0.046179
vt 0.795610 0.046179
vt 0.795610 0.093244
vt 0.795610 0.140309
vt 0.795610 0.234439
vt 0.159122 0.063828
vt 0.112057 0.063828
vt 0.112057 0.046179
vt 0.159122 0.046179
vt 0.159122 0.328568
vt 0.112057 0.328568
vt 0.112057 0.310919
vt 0.159122 0.310919
vt 0.522634 0.776797
vt 0.522634 0.823862
vt 0.513221 0.823862
vt 0.513221 0.776797
vt 0.253252 0.046179
vt 0.253252 0.328568
vt 0.571496 0.046179
vt 0.571496 0.328568
vt 0.383236 0.328568
vt 0.383236 0.046179
vt 0.064992 0.740942
vt 0.064992 0.458553
vt 0.159122 0.458553
vt 0.159122 0.740942
vt 0.289107 0.740942
vt 0.289107 0.458553
vt 0.383236 0.458553
vt 0.383236 0.740942
vt 0.064992 0.328568
vt 0.064992 0.046179
vt 0.737335 0.705644
vt 0.737335 0.458553
vt 0.784400 0.458553
vt 0.784400 0.705644
vt 0.923797 0.458553
vt 0.923797 0.705644
vt 0.914384 0.705644
vt 0.914384 0.458553
vt 0.925595 0.293270
vt 0.925595 0.046179
vt 0.935008 0.046179
vt 0.935008 0.293270
vt 0.737335 0.882693
vt 0.737335 0.835628
vt 0.746748 0.835628
vt 0.746748 0.882693
s 0
usemtl Material.002
f 10/1/1 12/2/1 4/3/1 6/4/1 5/5/1 3/6/1
f 7/7/2 8/8/2 2/9/2 11/10/2 9/11/2 1/12/2
f 14/13/3 16/14/3 12/15/3 10/16/3
f 9/17/3 11/18/3 15/19/3 13/20/3
f 16/21/2 14/22/2 18/23/2 20/24/2
f 13/20/3 14/13/3 10/16/3 3/25/3 1/26/3 9/17/3
f 7/27/4 5/28/4 6/29/4 8/30/4
f 5/31/5 7/32/5 1/33/5 3/34/5
f 4/35/6 2/36/6 8/37/6 6/38/6
f 2/39/3 4/40/3 12/15/3 16/14/3 15/19/3 11/18/3
f 19/41/3 20/42/3 18/43/3 17/44/3
f 15/45/5 16/46/5 20/47/5 19/48/5
f 14/49/6 13/50/6 17/51/6 18/52/6
f 13/53/1 15/54/1 19/55/1 17/56/1
