# Blender 5.0.0
# www.blender.org
mtllib arrow.mtl
o Arrow
v 0.006215 0.052622 -0.120150
v 0.011686 0.044628 -0.120135
v 0.006215 0.045239 -0.125606
v 0.008309 0.052010 -0.120147
v 0.010083 0.050276 -0.120142
v 0.006215 0.052244 -0.122240
v 0.008361 0.051511 -0.122289
v 0.009805 0.050093 -0.122177
v 0.009374 0.049587 -0.123297
v 0.011269 0.044858 -0.122226
v 0.010083 0.045055 -0.124000
v 0.011269 0.047683 -0.120138
v 0.010767 0.047996 -0.122282
v 0.009805 0.047997 -0.123726
v 0.006215 0.048248 -0.125193
v 0.006215 0.050708 -0.124011
v 0.008309 0.045188 -0.125187
v 0.008361 0.048265 -0.124688
v 0.008252 0.050267 -0.123730
v 0.006215 0.104361 0.033708
v 0.011686 0.093863 0.035928
v 0.006215 0.100035 0.029690
v 0.008309 0.103159 0.034082
v 0.010083 0.100741 0.034635
v 0.006215 0.105521 0.031695
v 0.008361 0.104207 0.032046
v 0.009805 0.102149 0.032606
v 0.009374 0.102524 0.031534
v 0.011269 0.095821 0.033745
v 0.010083 0.097682 0.031794
v 0.011269 0.097477 0.035283
v 0.010767 0.099591 0.033022
v 0.009805 0.100921 0.031465
v 0.006215 0.103179 0.029521
v 0.006215 0.105106 0.030224
v 0.008309 0.099161 0.030370
v 0.008361 0.102305 0.030279
v 0.008252 0.103902 0.030835
v 0.006215 0.008058 -0.125606
v 0.011686 0.008058 -0.120135
v 0.011686 -0.007884 -0.120135
v 0.006215 -0.007884 -0.125606
v 0.008309 0.008058 -0.125190
v 0.010083 0.008058 -0.124004
v 0.006215 0.004073 -0.125606
v 0.008405 0.004073 -0.125148
v 0.010083 0.004073 -0.124004
v 0.011686 0.004073 -0.120135
v 0.011269 0.008058 -0.122229
v 0.011228 0.004073 -0.122325
v 0.011269 -0.007884 -0.122229
v 0.010083 -0.007884 -0.124004
v 0.011686 -0.003898 -0.120135
v 0.011228 -0.003898 -0.122325
v 0.010083 -0.003898 -0.124004
v 0.006215 -0.003898 -0.125606
v 0.008309 -0.007884 -0.125190
v 0.008405 -0.003898 -0.125148
v 0.006215 0.003627 0.173212
v 0.006215 -0.003452 0.173212
v 0.011686 -0.007884 0.154756
v 0.011686 0.008058 0.154756
v 0.006215 0.002003 0.174715
v 0.006215 0.000087 0.175243
v 0.008309 0.005738 0.169351
v 0.008337 0.002904 0.171389
v 0.008337 0.000087 0.172617
v 0.010081 0.000087 0.169315
v 0.008309 -0.005564 0.169351
v 0.010083 -0.007147 0.164487
v 0.006215 -0.001829 0.174715
v 0.008337 -0.002730 0.171389
v 0.010082 -0.003530 0.167705
v 0.011686 -0.004227 0.158140
v 0.011686 0.000087 0.159328
v 0.011269 -0.007962 0.159362
v 0.011073 -0.003837 0.163008
v 0.011072 0.000087 0.164660
v 0.011269 0.008136 0.159362
v 0.010083 0.007322 0.164487
v 0.011686 0.004401 0.158140
v 0.011073 0.004012 0.163008
v 0.010082 0.003704 0.167705
v 0.006215 0.036296 0.031463
v 0.006215 0.043574 0.036035
v 0.011686 0.034676 0.042579
v 0.011686 0.028588 0.028818
v 0.006215 0.036670 0.033484
v 0.006215 0.038184 0.035062
v 0.008309 0.035746 0.030918
v 0.008337 0.036069 0.033287
v 0.008337 0.037083 0.035260
v 0.010081 0.035475 0.035840
v 0.008309 0.041336 0.036709
v 0.010083 0.038858 0.038189
v 0.006215 0.040609 0.035958
v 0.008337 0.038922 0.036321
v 0.010082 0.037000 0.037286
v 0.011686 0.029719 0.038905
v 0.011269 0.036520 0.040250
v 0.011073 0.034567 0.039076
v 0.011072 0.032851 0.037182
v 0.011269 0.031575 0.029487
v 0.010083 0.034088 0.030224
v 0.011686 0.028569 0.034348
v 0.011073 0.032012 0.033744
v 0.010082 0.034615 0.033304
v 0.006215 -0.052448 -0.120150
v 0.006215 -0.045064 -0.125606
v 0.011686 -0.044453 -0.120135
v 0.006215 -0.052069 -0.122240
v 0.006215 -0.050533 -0.124011
v 0.008309 -0.051836 -0.120147
v 0.008361 -0.051337 -0.122289
v 0.008252 -0.050093 -0.123730
v 0.009374 -0.049413 -0.123297
v 0.008309 -0.045014 -0.125187
v 0.010083 -0.044881 -0.124000
v 0.006215 -0.048074 -0.125193
v 0.008361 -0.048090 -0.124688
v 0.009805 -0.047823 -0.123726
v 0.011269 -0.047509 -0.120138
v 0.010083 -0.050101 -0.120142
v 0.011269 -0.044684 -0.122226
v 0.010767 -0.047822 -0.122282
v 0.009805 -0.049919 -0.122177
v 0.006215 -0.104187 0.033708
v 0.006215 -0.099861 0.029690
v 0.011686 -0.093688 0.035928
v 0.006215 -0.105346 0.031695
v 0.006215 -0.104931 0.030224
v 0.008309 -0.102984 0.034082
v 0.008361 -0.104033 0.032046
v 0.008252 -0.103727 0.030835
v 0.009374 -0.102350 0.031534
v 0.008309 -0.098987 0.030370
v 0.010083 -0.097508 0.031794
v 0.006215 -0.103005 0.029521
v 0.008361 -0.102131 0.030279
v 0.009805 -0.100747 0.031465
v 0.011269 -0.097303 0.035283
v 0.010083 -0.100567 0.034635
v 0.011269 -0.095647 0.033745
v 0.010767 -0.099416 0.033022
v 0.009805 -0.101975 0.032606
v 0.006215 -0.036121 0.031463
v 0.011686 -0.028414 0.028818
v 0.011686 -0.034502 0.042579
v 0.006215 -0.043400 0.036035
v 0.008309 -0.035572 0.030918
v 0.010083 -0.033914 0.030224
v 0.006215 -0.036495 0.033484
v 0.008337 -0.035895 0.033287
v 0.010082 -0.034441 0.033304
v 0.010081 -0.035300 0.035840
v 0.011686 -0.028394 0.034348
v 0.011686 -0.029545 0.038905
v 0.011269 -0.031400 0.029487
v 0.011073 -0.031838 0.033744
v 0.011072 -0.032676 0.037182
v 0.011269 -0.036346 0.040250
v 0.010083 -0.038684 0.038189
v 0.011073 -0.034393 0.039076
v 0.010082 -0.036826 0.037286
v 0.006215 -0.040435 0.035958
v 0.006215 -0.038010 0.035062
v 0.008309 -0.041161 0.036709
v 0.008337 -0.038747 0.036321
v 0.008337 -0.036909 0.035260
v -0.006274 0.003627 0.173212
v -0.011745 0.008058 0.154756
v -0.011745 -0.007884 0.154756
v -0.006274 -0.003452 0.173212
v -0.008368 0.005738 0.169351
v -0.010142 0.007322 0.164487
v -0.006274 0.002003 0.174715
v -0.008396 0.002904 0.171389
v -0.010141 0.003704 0.167705
v -0.010140 0.000087 0.169315
v -0.011745 0.004401 0.158140
v -0.011745 0.000087 0.159328
v -0.011328 0.008136 0.159362
v -0.011132 0.004012 0.163008
v -0.011131 0.000087 0.164660
v -0.011328 -0.007962 0.159362
v -0.010142 -0.007147 0.164487
v -0.011745 -0.004227 0.158140
v -0.011132 -0.003837 0.163008
v -0.010141 -0.003530 0.167705
v -0.006274 -0.001829 0.174715
v -0.006274 0.000087 0.175243
v -0.008368 -0.005564 0.169351
v -0.008396 -0.002730 0.171389
v -0.008396 0.000087 0.172617
v -0.006274 0.104361 0.033708
v -0.006274 0.100035 0.029690
v -0.011745 0.093863 0.035928
v -0.006274 0.105521 0.031695
v -0.006274 0.105106 0.030224
v -0.008368 0.103159 0.034082
v -0.008420 0.104207 0.032046
v -0.008311 0.103902 0.030835
v -0.009433 0.102524 0.031534
v -0.008368 0.099161 0.030370
v -0.010142 0.097682 0.031794
v -0.006274 0.103179 0.029521
v -0.008420 0.102305 0.030279
v -0.009864 0.100921 0.031465
v -0.011328 0.097477 0.035283
v -0.010142 0.100741 0.034635
v -0.011328 0.095821 0.033745
v -0.010826 0.099591 0.033022
v -0.009864 0.102149 0.032606
v -0.006274 0.036296 0.031463
v -0.011745 0.028588 0.028818
v -0.006274 0.043574 0.036035
v -0.008368 0.035746 0.030918
v -0.010142 0.034088 0.030224
v -0.006274 0.036670 0.033484
v -0.008396 0.036069 0.033287
v -0.010141 0.034615 0.033304
v -0.010140 0.035475 0.035840
v -0.011745 0.028569 0.034348
v -0.011745 0.029719 0.038905
v -0.011328 0.031575 0.029487
v -0.011132 0.032012 0.033744
v -0.011131 0.032851 0.037182
v -0.011328 0.036520 0.040250
v -0.010142 0.038858 0.038189
v -0.011132 0.034567 0.039076
v -0.010141 0.037000 0.037286
v -0.006274 0.040609 0.035958
v -0.006274 0.038184 0.035062
v -0.008368 0.041336 0.036709
v -0.008396 0.038922 0.036321
v -0.008396 0.037083 0.035260
v -0.006274 0.052622 -0.120150
v -0.006274 0.045239 -0.125606
v -0.011745 0.044628 -0.120135
v -0.006274 0.052244 -0.122240
v -0.006274 0.050708 -0.124011
v -0.008368 0.052010 -0.120147
v -0.008420 0.051511 -0.122289
v -0.008311 0.050267 -0.123730
v -0.009433 0.049587 -0.123297
v -0.008368 0.045188 -0.125187
v -0.010142 0.045055 -0.124000
v -0.006274 0.048248 -0.125193
v -0.008420 0.048265 -0.124688
v -0.009864 0.047997 -0.123726
v -0.011328 0.047683 -0.120138
v -0.010142 0.050276 -0.120142
v -0.011328 0.044858 -0.122226
v -0.010826 0.047996 -0.122282
v -0.009864 0.050093 -0.122177
v -0.006274 0.008058 -0.125606
v -0.006274 -0.007884 -0.125606
v -0.011745 -0.007884 -0.120135
v -0.011745 0.008058 -0.120135
v -0.006274 0.004073 -0.125606
v -0.008368 0.008058 -0.125190
v -0.008464 0.004073 -0.125148
v -0.008368 -0.007884 -0.125190
v -0.010142 -0.007884 -0.124004
v -0.006274 -0.003898 -0.125606
v -0.008464 -0.003898 -0.125148
v -0.010142 -0.003898 -0.124004
v -0.011745 -0.003898 -0.120135
v -0.011328 -0.007884 -0.122229
v -0.011287 -0.003898 -0.122325
v -0.011328 0.008058 -0.122229
v -0.010142 0.008058 -0.124004
v -0.011745 0.004073 -0.120135
v -0.011287 0.004073 -0.122325
v -0.010142 0.004073 -0.124004
v -0.011745 0.008058 0.034609
v -0.006274 -0.104187 0.033708
v -0.011745 -0.093688 0.035928
v -0.006274 -0.099861 0.029690
v -0.008368 -0.102984 0.034082
v -0.010142 -0.100567 0.034635
v -0.006274 -0.105346 0.031695
v -0.008420 -0.104033 0.032046
v -0.009864 -0.101975 0.032606
v -0.009433 -0.102350 0.031534
v -0.011328 -0.095647 0.033745
v -0.010142 -0.097508 0.031794
v -0.011328 -0.097303 0.035283
v -0.010826 -0.099416 0.033022
v -0.009864 -0.100747 0.031465
v -0.006274 -0.103005 0.029521
v -0.006274 -0.104931 0.030224
v -0.008368 -0.098987 0.030370
v -0.008420 -0.102131 0.030279
v -0.008311 -0.103727 0.030835
v -0.006274 -0.036121 0.031463
v -0.006274 -0.043400 0.036035
v -0.011745 -0.034502 0.042579
v -0.011745 -0.028414 0.028818
v -0.006274 -0.036495 0.033484
v -0.006274 -0.038010 0.035062
v -0.008368 -0.035572 0.030918
v -0.008396 -0.035895 0.033287
v -0.008396 -0.036909 0.035260
v -0.010140 -0.035300 0.035840
v -0.008368 -0.041161 0.036709
v -0.010142 -0.038684 0.038189
v -0.006274 -0.040435 0.035958
v -0.008396 -0.038747 0.036321
v -0.010141 -0.036826 0.037286
v -0.011745 -0.029545 0.038905
v -0.011328 -0.036346 0.040250
v -0.011132 -0.034393 0.039076
v -0.011131 -0.032676 0.037182
v -0.011328 -0.031400 0.029487
v -0.010142 -0.033914 0.030224
v -0.011745 -0.028394 0.034348
v -0.011132 -0.031838 0.033744
v -0.010141 -0.034441 0.033304
v -0.006274 -0.052448 -0.120150
v -0.011745 -0.044453 -0.120135
v -0.006274 -0.045064 -0.125606
v -0.008368 -0.051836 -0.120147
v -0.010142 -0.050101 -0.120142
v -0.006274 -0.052069 -0.122240
v -0.008420 -0.051337 -0.122289
v -0.009864 -0.049919 -0.122177
v -0.009433 -0.049413 -0.123297
v -0.011328 -0.044684 -0.122226
v -0.010142 -0.044881 -0.124000
v -0.011328 -0.047509 -0.120138
v -0.010826 -0.047822 -0.122282
v -0.009864 -0.047823 -0.123726
v -0.006274 -0.048074 -0.125193
v -0.006274 -0.050533 -0.124011
v -0.008368 -0.045014 -0.125187
v -0.008420 -0.048090 -0.124688
v -0.008311 -0.050093 -0.123730
vn 0.1403 -0.0753 -0.9872
vn 0.1281 -0.0522 -0.9904
vn -0.1281 -0.0522 -0.9904
vn -0.1403 -0.0753 -0.9872
vn 0.1837 -0.8316 0.5241
vn 0.3204 -0.6755 0.6641
vn -0.3204 -0.6755 0.6641
vn -0.1837 -0.8316 0.5241
vn 0.9948 0.0007 -0.1016
vn 0.9205 -0.0000 -0.3908
vn 0.9948 -0.0007 -0.1016
vn 0.1445 -0.9887 -0.0400
vn 0.1303 -0.9906 -0.0424
vn -0.1303 -0.9906 -0.0424
vn -0.1445 -0.9887 -0.0400
vn 0.1281 0.0522 -0.9904
vn 0.1403 0.0753 -0.9872
vn -0.1403 0.0753 -0.9872
vn -0.1281 0.0522 -0.9904
vn 0.3204 0.6755 0.6641
vn 0.1837 0.8316 0.5241
vn -0.1837 0.8316 0.5241
vn -0.3204 0.6755 0.6641
vn 0.1445 0.9887 -0.0400
vn 0.4974 0.8665 -0.0419
vn 0.4744 0.7861 -0.3962
vn 0.1378 0.8957 -0.4228
vn 0.8144 0.5784 -0.0463
vn 0.7685 0.5458 -0.3339
vn 0.3993 0.5578 -0.7276
vn 0.1139 0.6066 -0.7868
vn 0.6542 0.4480 -0.6094
vn 0.9932 0.0694 -0.0934
vn 0.9241 0.0687 -0.3760
vn 0.8941 0.2727 -0.3553
vn 0.9581 0.2771 -0.0731
vn 0.7091 0.0645 -0.7022
vn 0.6983 0.2448 -0.6727
vn 0.1022 0.0705 -0.9923
vn 0.1058 0.2864 -0.9522
vn 0.3896 0.2775 -0.8782
vn 0.3850 0.0691 -0.9203
vn 0.5318 0.7168 0.4509
vn 0.6484 0.7555 0.0938
vn 0.2499 0.9635 0.0962
vn 0.8198 0.4940 0.2897
vn 0.8783 0.4779 0.0108
vn 0.6490 0.5440 -0.5318
vn 0.2594 0.7172 -0.6468
vn 0.8300 0.3843 -0.4043
vn 0.9972 0.0503 -0.0546
vn 0.9406 0.0182 -0.3391
vn 0.9577 0.2050 -0.2018
vn 0.9678 0.2380 0.0821
vn 0.7352 -0.0368 -0.6769
vn 0.8047 0.1306 -0.5791
vn 0.1941 0.1652 -0.9670
vn 0.5386 0.1338 -0.8319
vn 0.4356 -0.0668 -0.8977
vn 0.0994 -0.0007 -0.9951
vn 0.3835 -0.0000 -0.9235
vn 0.3908 -0.0000 -0.9205
vn 0.1016 -0.0007 -0.9948
vn 0.7071 0.0013 -0.7071
vn 0.9951 -0.0007 -0.0993
vn 0.9236 -0.0000 -0.3834
vn 0.9951 0.0007 -0.0993
vn 0.7071 -0.0013 -0.7071
vn 0.0994 0.0007 -0.9951
vn 0.1016 0.0007 -0.9948
vn 0.3925 0.4311 0.8125
vn 0.7826 0.3274 0.5294
vn 0.5979 0.5993 0.5324
vn 0.4165 -0.0000 0.9091
vn 0.8346 -0.0000 0.5508
vn 0.9104 0.2274 0.3457
vn 0.8406 0.4099 0.3541
vn 0.9282 -0.0000 0.3721
vn 0.5979 -0.5993 0.5324
vn 0.7826 -0.3274 0.5294
vn 0.3925 -0.4311 0.8125
vn 0.8406 -0.4099 0.3541
vn 0.9104 -0.2274 0.3457
vn 0.9969 -0.0601 0.0509
vn 0.9972 -0.0365 0.0656
vn 0.9783 -0.1070 0.1776
vn 0.9568 -0.2196 0.1906
vn 0.9975 -0.0000 0.0709
vn 0.9842 -0.0000 0.1768
vn 0.9969 0.0601 0.0509
vn 0.9568 0.2196 0.1906
vn 0.9783 0.1070 0.1776
vn 0.9972 0.0365 0.0656
vn 0.1303 0.9906 -0.0424
vn 0.1477 0.8932 -0.4248
vn 0.4883 0.8264 -0.2805
vn 0.4860 0.8736 -0.0235
vn 0.1844 0.5625 -0.8060
vn 0.5473 0.6022 -0.5812
vn 0.8228 0.5532 -0.1303
vn 0.8229 0.5682 0.0006
vn 0.8592 0.4247 -0.2853
vn 0.4674 0.0110 -0.8840
vn 0.5592 0.2961 -0.7744
vn 0.1711 0.1872 -0.9673
vn 0.8029 0.0615 -0.5929
vn 0.8512 0.2633 -0.4540
vn 0.9665 0.1399 -0.2152
vn 0.9961 0.0757 -0.0460
vn 0.9722 0.2050 -0.1131
vn 0.9955 0.0218 -0.0920
vn 0.9600 0.0273 -0.2787
vn 0.9973 0.0728 0.0070
vn 0.9625 0.2709 0.0147
vn 0.9651 0.2592 -0.0363
vn 0.9966 0.0822 -0.0077
vn 0.9972 -0.0503 -0.0546
vn 0.9955 -0.0218 -0.0920
vn 0.9961 -0.0757 -0.0460
vn 0.9966 -0.0822 -0.0077
vn 0.9973 -0.0728 0.0070
vn 0.9932 -0.0694 -0.0934
vn 0.1378 -0.8957 -0.4228
vn 0.4744 -0.7861 -0.3962
vn 0.4974 -0.8665 -0.0419
vn 0.1139 -0.6066 -0.7868
vn 0.3993 -0.5578 -0.7276
vn 0.7685 -0.5458 -0.3339
vn 0.8144 -0.5784 -0.0463
vn 0.6542 -0.4480 -0.6094
vn 0.1022 -0.0705 -0.9923
vn 0.3850 -0.0691 -0.9203
vn 0.3896 -0.2775 -0.8782
vn 0.1058 -0.2864 -0.9522
vn 0.7091 -0.0645 -0.7022
vn 0.6983 -0.2448 -0.6727
vn 0.9581 -0.2771 -0.0731
vn 0.8941 -0.2727 -0.3553
vn 0.9241 -0.0687 -0.3760
vn 0.2499 -0.9635 0.0962
vn 0.6484 -0.7555 0.0938
vn 0.5318 -0.7168 0.4509
vn 0.2594 -0.7172 -0.6468
vn 0.6490 -0.5440 -0.5318
vn 0.8783 -0.4779 0.0108
vn 0.8198 -0.4940 0.2897
vn 0.8300 -0.3843 -0.4043
vn 0.4356 0.0668 -0.8977
vn 0.5386 -0.1338 -0.8319
vn 0.1941 -0.1652 -0.9670
vn 0.7352 0.0368 -0.6769
vn 0.8047 -0.1306 -0.5791
vn 0.9678 -0.2380 0.0821
vn 0.9577 -0.2050 -0.2018
vn 0.9406 -0.0182 -0.3391
vn 0.4860 -0.8736 -0.0235
vn 0.4883 -0.8264 -0.2805
vn 0.1477 -0.8932 -0.4248
vn 0.8229 -0.5682 0.0006
vn 0.8228 -0.5532 -0.1303
vn 0.5473 -0.6022 -0.5812
vn 0.1844 -0.5625 -0.8060
vn 0.8592 -0.4247 -0.2853
vn 0.9651 -0.2592 -0.0363
vn 0.9625 -0.2709 0.0147
vn 0.9722 -0.2050 -0.1131
vn 0.9665 -0.1399 -0.2152
vn 0.9600 -0.0273 -0.2787
vn 0.8029 -0.0615 -0.5929
vn 0.8512 -0.2633 -0.4540
vn 0.1711 -0.1872 -0.9673
vn 0.5592 -0.2961 -0.7744
vn 0.4674 -0.0110 -0.8840
vn -0.5979 0.5993 0.5324
vn -0.7826 0.3274 0.5294
vn -0.3925 0.4311 0.8125
vn -0.8406 0.4099 0.3541
vn -0.9104 0.2274 0.3457
vn -0.8346 -0.0000 0.5508
vn -0.4165 -0.0000 0.9091
vn -0.9282 -0.0000 0.3721
vn -0.9969 0.0600 0.0504
vn -0.9972 0.0365 0.0656
vn -0.9783 0.1070 0.1776
vn -0.9568 0.2196 0.1906
vn -0.9975 -0.0000 0.0709
vn -0.9842 -0.0000 0.1768
vn -0.9969 -0.0601 0.0509
vn -0.9568 -0.2196 0.1906
vn -0.9783 -0.1070 0.1776
vn -0.9972 -0.0365 0.0656
vn -0.8406 -0.4099 0.3541
vn -0.9104 -0.2274 0.3457
vn -0.3925 -0.4311 0.8125
vn -0.7826 -0.3274 0.5294
vn -0.5979 -0.5993 0.5324
vn -0.2499 0.9635 0.0962
vn -0.6484 0.7555 0.0938
vn -0.5318 0.7168 0.4509
vn -0.2594 0.7172 -0.6468
vn -0.6490 0.5440 -0.5318
vn -0.8783 0.4779 0.0108
vn -0.8198 0.4940 0.2897
vn -0.8300 0.3843 -0.4043
vn -0.4356 -0.0668 -0.8977
vn -0.5386 0.1338 -0.8319
vn -0.1941 0.1652 -0.9670
vn -0.7352 -0.0368 -0.6769
vn -0.8047 0.1306 -0.5791
vn -0.9979 0.0609 0.0212
vn -0.9678 0.2380 0.0821
vn -0.9577 0.2050 -0.2018
vn -0.9482 0.0210 -0.3171
vn -0.1303 0.9906 -0.0424
vn -0.4860 0.8736 -0.0235
vn -0.4883 0.8264 -0.2805
vn -0.1477 0.8932 -0.4248
vn -0.8229 0.5682 0.0006
vn -0.8228 0.5532 -0.1303
vn -0.5473 0.6022 -0.5812
vn -0.1844 0.5625 -0.8060
vn -0.8592 0.4247 -0.2853
vn -0.9973 0.0728 0.0070
vn -0.9966 0.0822 -0.0077
vn -0.9651 0.2592 -0.0363
vn -0.9625 0.2709 0.0147
vn -0.9982 0.0504 -0.0318
vn -0.9722 0.2050 -0.1131
vn -0.9764 0.0472 -0.2109
vn -0.8029 0.0615 -0.5929
vn -0.8512 0.2633 -0.4540
vn -0.9417 0.1596 -0.2962
vn -0.1711 0.1872 -0.9673
vn -0.5592 0.2961 -0.7744
vn -0.4674 0.0110 -0.8840
vn -0.1445 0.9887 -0.0400
vn -0.1378 0.8957 -0.4228
vn -0.4745 0.7861 -0.3962
vn -0.4974 0.8665 -0.0419
vn -0.1139 0.6066 -0.7868
vn -0.3993 0.5578 -0.7276
vn -0.7685 0.5458 -0.3339
vn -0.8144 0.5784 -0.0463
vn -0.6542 0.4480 -0.6094
vn -0.1022 0.0705 -0.9923
vn -0.3850 0.0691 -0.9203
vn -0.3896 0.2775 -0.8782
vn -0.1058 0.2864 -0.9522
vn -0.7091 0.0645 -0.7022
vn -0.6983 0.2448 -0.6727
vn -0.9932 0.0694 -0.0934
vn -0.9581 0.2771 -0.0731
vn -0.8941 0.2727 -0.3553
vn -0.9241 0.0687 -0.3760
vn -0.0994 -0.0007 -0.9951
vn -0.1016 -0.0007 -0.9948
vn -0.3908 -0.0000 -0.9205
vn -0.3835 -0.0000 -0.9235
vn -0.9948 -0.0007 -0.1016
vn -0.9948 0.0007 -0.1016
vn -0.9951 0.0007 -0.0993
vn -0.9932 -0.0694 -0.0934
vn -0.9973 -0.0728 0.0070
vn -0.9966 -0.0822 -0.0077
vn -0.9960 -0.0758 -0.0476
vn -0.9959 -0.0217 -0.0882
vn -0.9972 -0.0503 -0.0546
vn -1.0000 -0.0002 -0.0026
vn -0.9951 -0.0007 -0.0993
vn -0.7071 0.0013 -0.7071
vn -0.0994 0.0007 -0.9951
vn -0.1016 0.0007 -0.9948
vn -0.7071 -0.0013 -0.7071
vn -0.9205 -0.0000 -0.3908
vn -0.9236 -0.0000 -0.3834
vn -0.5318 -0.7168 0.4509
vn -0.6484 -0.7555 0.0938
vn -0.2499 -0.9635 0.0962
vn -0.8198 -0.4940 0.2897
vn -0.8783 -0.4779 0.0108
vn -0.6490 -0.5440 -0.5318
vn -0.2594 -0.7172 -0.6468
vn -0.8300 -0.3843 -0.4043
vn -0.9406 -0.0182 -0.3391
vn -0.9577 -0.2050 -0.2018
vn -0.9678 -0.2380 0.0821
vn -0.7352 0.0368 -0.6769
vn -0.8047 -0.1306 -0.5791
vn -0.1941 -0.1652 -0.9670
vn -0.5386 -0.1338 -0.8319
vn -0.4356 0.0668 -0.8977
vn -0.1477 -0.8932 -0.4248
vn -0.4883 -0.8264 -0.2805
vn -0.4860 -0.8736 -0.0235
vn -0.1844 -0.5625 -0.8060
vn -0.5473 -0.6022 -0.5812
vn -0.8228 -0.5532 -0.1303
vn -0.8229 -0.5682 0.0006
vn -0.8592 -0.4247 -0.2853
vn -0.4674 -0.0110 -0.8840
vn -0.5592 -0.2961 -0.7744
vn -0.1711 -0.1872 -0.9673
vn -0.8029 -0.0615 -0.5929
vn -0.8512 -0.2633 -0.4540
vn -0.9600 -0.0273 -0.2787
vn -0.9665 -0.1399 -0.2151
vn -0.9708 -0.2052 -0.1241
vn -0.9625 -0.2709 0.0147
vn -0.9651 -0.2592 -0.0363
vn -0.4974 -0.8665 -0.0419
vn -0.4744 -0.7861 -0.3962
vn -0.1378 -0.8957 -0.4228
vn -0.8144 -0.5784 -0.0463
vn -0.7685 -0.5458 -0.3339
vn -0.3993 -0.5578 -0.7276
vn -0.1139 -0.6066 -0.7868
vn -0.6542 -0.4480 -0.6094
vn -0.9241 -0.0687 -0.3760
vn -0.8941 -0.2727 -0.3553
vn -0.9581 -0.2771 -0.0731
vn -0.7091 -0.0645 -0.7022
vn -0.6983 -0.2448 -0.6727
vn -0.1022 -0.0705 -0.9923
vn -0.1058 -0.2864 -0.9522
vn -0.3896 -0.2775 -0.8782
vn -0.3850 -0.0691 -0.9203
vt 0.945519 1.000000
vt 0.554480 1.000000
vt 0.554480 1.000000
vt 0.945520 1.000000
vt 1.000000 0.983585
vt 1.000000 0.516415
vt 1.000000 0.516415
vt 1.000000 0.983585
vt 0.017767 0.538666
vt 0.010609 0.538415
vt 0.010609 0.538415
vt 0.016785 1.000000
vt 0.483215 1.000000
vt 1.000000 0.983585
vt 0.016785 1.000000
vt 0.016891 1.000000
vt 0.010413 1.000000
vt 0.010448 1.000000
vt 0.017172 1.000000
vt 0.010976 1.000000
vt 0.000000 1.000000
vt 0.002543 0.988636
vt 0.017177 0.923149
vt 0.010643 0.923664
vt 0.010420 0.953384
vt 0.017079 0.952314
vt 0.000000 0.923246
vt 0.000000 0.950943
vt 0.017172 1.000000
vt 0.000000 0.924976
vt 0.000000 0.953299
vt 0.000000 0.953458
vt 0.000000 0.924504
vt 1.000000 0.981480
vt 1.000000 0.987912
vt 1.000000 0.990057
vt 1.000000 0.977783
vt 1.000000 0.984525
vt 1.000000 1.000000
vt 0.986448 0.995917
vt 0.937726 0.971691
vt 0.939262 0.981128
vt 0.962779 0.983846
vt 0.960132 0.974810
vt 0.926264 1.000000
vt 0.948642 1.000000
vt 0.967002 1.000000
vt 0.959883 1.000000
vt 0.938535 1.000000
vt 0.926264 1.000000
vt 0.000000 0.575024
vt 0.000000 0.575024
vt 0.000000 0.537512
vt 0.000000 0.537512
vt 0.017633 0.576808
vt 0.010849 0.576295
vt 0.017633 0.576808
vt 0.010849 0.576295
vt 1.000000 0.510890
vt 1.000000 0.520656
vt 1.000000 0.528728
vt 1.000000 0.500000
vt 1.000000 0.531291
vt 1.000000 0.543252
vt 0.992757 0.511829
vt 1.000000 0.528728
vt 1.000000 0.531291
vt 0.958815 0.538019
vt 0.953475 0.520732
vt 0.967828 0.518760
vt 0.974514 0.538083
vt 0.938146 0.500000
vt 0.955700 0.500000
vt 0.958815 0.538019
vt 0.967828 0.518760
vt 0.953475 0.520732
vt 0.483215 1.000000
vt 0.489339 1.000000
vt 0.488831 1.000000
vt 0.481633 1.000000
vt 0.500000 1.000000
vt 0.489109 1.000000
vt 0.479767 1.000000
vt 0.499224 0.997289
vt 0.538296 1.000000
vt 0.522637 1.000000
vt 0.534602 1.000000
vt 0.519206 1.000000
vt 0.508123 1.000000
vt 0.539032 0.931769
vt 0.500000 0.944255
vt 0.500000 0.968271
vt 0.590276 0.865812
vt 0.562841 0.922118
vt 0.481825 0.893124
vt 0.481247 0.934274
vt 0.493706 0.945701
vt 0.498671 0.899330
vt 0.500000 0.944255
vt 0.937726 0.971691
vt 0.500000 0.944255
vt 0.498671 0.899330
vt 0.481825 0.893124
vt 0.010976 1.000000
vt 0.017172 1.000000
vt 0.002543 0.988636
vt 0.000000 0.924976
vt 0.000000 0.924505
vt 0.000000 0.953458
vt 0.000000 0.953299
vt 0.017079 0.952314
vt 0.010420 0.953384
vt 0.010643 0.923664
vt 0.017172 1.000000
vt 1.000000 0.990057
vt 1.000000 0.987912
vt 0.986448 0.995917
vt 0.938535 1.000000
vt 0.959883 1.000000
vt 0.967002 1.000000
vt 0.948642 1.000000
vt 0.960133 0.974810
vt 0.962779 0.983846
vt 0.939263 0.981128
vt 0.926264 1.000000
vt 0.488831 1.000000
vt 0.489339 1.000000
vt 0.479767 1.000000
vt 0.489109 1.000000
vt 0.481247 0.934274
vt 0.562841 0.922117
vt 0.508123 1.000000
vt 0.538296 1.000000
vt 1.000000 0.528728
vt 1.000000 0.520656
vt 1.000000 0.510890
vt 0.974514 0.538083
vt 1.000000 0.990057
vt 1.000000 0.987912
vt 1.000000 0.981480
vt 0.938535 1.000000
vt 0.959883 1.000000
vt 0.522637 1.000000
vt 0.538296 1.000000
vt 0.010448 1.000000
vt 0.016891 1.000000
vt 0.000000 0.953458
vt 0.017767 0.538666
vt 0.532769 0.589653
vt 0.000000 0.575024
vt 0.010609 0.538415
vt 0.010609 0.538415
vt 1.000000 0.987912
vt 1.000000 0.990057
vt 0.967002 1.000000
vt 0.959883 1.000000
vt 0.938535 1.000000
vt 0.489339 1.000000
vt 0.481633 1.000000
vt 0.522637 1.000000
vt 0.000000 0.924976
vt 0.017172 1.000000
vt 0.017172 1.000000
s 1
usemtl 
f 22/1/1 85/2/2 216/3/3 196/4/4
f 127/5/5 60/6/6 173/7/7 277/8/8
f 53/9/9 54/10/10 50/11/10 48/9/11
f 108/12/12 146/13/13 296/13/14 320/12/15
f 149/2/16 128/4/17 279/4/18 297/2/19
f 59/6/20 20/14/21 195/14/22 170/7/23
f 1/15/24 4/16/25 7/17/26 6/18/27
f 4/16/25 5/19/28 8/20/29 7/17/26
f 6/18/27 7/17/26 19/21/30 16/21/31
f 7/17/26 8/20/29 9/22/32 19/21/30
f 2/23/33 10/24/34 13/25/35 12/26/36
f 10/24/34 11/27/37 14/28/38 13/25/35
f 12/26/36 13/25/35 8/20/29 5/29/28
f 13/25/35 14/28/38 9/22/32 8/20/29
f 3/30/39 15/31/40 18/32/41 17/33/42
f 15/31/40 16/21/31 19/21/30 18/32/41
f 17/33/42 18/32/41 14/28/38 11/27/37
f 18/32/41 19/21/30 9/22/32 14/28/38
f 20/14/21 23/34/43 26/35/44 25/36/45
f 23/34/43 24/37/46 27/38/47 26/35/44
f 25/36/45 26/35/44 38/39/48 35/39/49
f 26/35/44 27/38/47 28/40/50 38/39/48
f 21/41/51 29/42/52 32/43/53 31/44/54
f 29/42/52 30/45/55 33/46/56 32/43/53
f 31/44/54 32/43/53 27/38/47 24/37/46
f 32/43/53 33/46/56 28/40/50 27/38/47
f 22/1/1 34/47/57 37/48/58 36/49/59
f 34/47/57 35/39/49 38/39/48 37/48/58
f 36/49/59 37/48/58 33/46/56 30/50/55
f 37/48/58 38/39/48 28/40/50 33/46/56
f 39/51/60 43/52/61 46/53/62 45/54/63
f 43/52/61 44/52/64 47/54/64 46/53/62
f 40/55/65 48/9/11 50/11/10 49/56/66
f 49/56/66 50/11/10 47/54/64 44/52/64
f 41/57/67 51/58/66 54/10/10 53/9/9
f 51/58/66 52/51/68 55/54/68 54/10/10
f 42/51/69 56/53/70 58/53/62 57/51/61
f 57/51/61 58/53/62 55/54/68 52/51/68
f 59/6/20 63/59/71 66/60/72 65/61/73
f 63/59/71 64/62/74 67/62/75 66/60/72
f 65/61/73 66/60/72 83/63/76 80/64/77
f 66/60/72 67/62/75 68/65/78 83/63/76
f 60/6/6 69/66/79 72/60/80 71/59/81
f 69/66/79 70/64/82 73/67/83 72/60/80
f 71/59/81 72/60/80 67/62/75 64/62/74
f 72/60/80 73/67/83 68/65/78 67/62/75
f 61/68/84 74/69/85 77/70/86 76/71/87
f 74/69/85 75/72/88 78/73/89 77/70/86
f 76/71/87 77/70/86 73/67/83 70/64/82
f 77/70/86 78/73/89 68/65/78 73/67/83
f 62/74/90 79/71/91 82/75/92 81/76/93
f 79/71/91 80/64/77 83/63/76 82/75/92
f 81/76/93 82/75/92 78/73/89 75/72/88
f 82/75/92 83/63/76 68/65/78 78/73/89
f 84/77/94 88/78/95 91/79/96 90/80/97
f 88/78/95 89/81/98 92/81/99 91/79/96
f 90/80/97 91/79/96 107/82/100 104/83/101
f 91/79/96 92/81/99 93/84/102 107/82/100
f 85/2/2 94/85/103 97/86/104 96/87/105
f 94/85/103 95/88/106 98/89/107 97/86/104
f 96/87/105 97/86/104 92/81/99 89/81/98
f 97/86/104 98/89/107 93/84/102 92/81/99
f 101/90/108 99/91/109 102/92/110
f 99/91/109 101/90/108 86/93/111
f 100/94/112 101/90/108 98/89/107 95/88/106
f 101/90/108 102/92/110 93/84/102 98/89/107
f 87/95/113 103/96/114 106/97/115 105/98/116
f 103/96/114 104/83/101 107/82/100 106/97/115
f 105/98/116 106/97/115 102/92/110 99/99/109
f 106/97/115 107/82/100 93/84/102 102/92/110
f 40/55/65 2/23/33 87/95/113 105/98/116 99/91/109 86/93/111 21/41/51 62/74/90 81/76/93 75/72/88 74/69/85 61/68/84 129/100/117 148/93/118 157/101/119 156/102/120 147/103/121 110/23/122 41/57/67 53/9/9 48/9/11
f 56/53/70 45/54/63 46/53/62 58/53/62
f 108/12/12 111/18/123 114/17/124 113/16/125
f 111/18/123 112/21/126 115/21/127 114/17/124
f 113/16/125 114/17/124 126/104/128 123/105/129
f 114/17/124 115/21/127 116/106/130 126/104/128
f 109/107/131 117/108/132 120/109/133 119/110/134
f 117/108/132 118/27/135 121/28/136 120/109/133
f 119/110/134 120/109/133 115/21/127 112/21/126
f 120/109/133 121/28/136 116/106/130 115/21/127
f 110/23/122 122/111/137 125/112/138 124/113/139
f 122/111/137 123/114/129 126/104/128 125/112/138
f 124/113/139 125/112/138 121/28/136 118/27/135
f 125/112/138 126/104/128 116/106/130 121/28/136
f 127/5/5 130/115/140 133/116/141 132/34/142
f 130/115/140 131/39/143 134/39/144 133/116/141
f 132/34/142 133/116/141 145/38/145 142/37/146
f 133/116/141 134/39/144 135/117/147 145/38/145
f 128/4/17 136/118/148 139/119/149 138/120/150
f 136/118/148 137/45/151 140/121/152 139/119/149
f 138/120/150 139/119/149 134/39/144 131/39/143
f 139/119/149 140/121/152 135/117/147 134/39/144
f 129/100/117 141/122/153 144/123/154 143/124/155
f 141/122/153 142/37/146 145/38/145 144/123/154
f 143/124/155 144/123/154 140/121/152 137/125/151
f 144/123/154 145/38/145 135/117/147 140/121/152
f 146/13/13 150/80/156 153/126/157 152/127/158
f 150/80/156 151/128/159 154/129/160 153/126/157
f 152/127/158 153/126/157 169/81/161 166/81/162
f 153/126/157 154/129/160 155/84/163 169/81/161
f 147/103/121 156/102/120 159/97/164 158/130/165
f 156/102/120 157/101/119 160/92/166 159/97/164
f 158/130/165 159/97/164 154/129/160 151/83/159
f 159/97/164 160/92/166 155/84/163 154/129/160
f 157/101/119 163/90/167 160/92/166
f 161/131/168 162/88/169 164/132/170 163/90/167
f 163/90/167 164/132/170 155/84/163 160/92/166
f 149/2/16 165/87/171 168/86/172 167/133/173
f 165/87/171 166/81/162 169/81/161 168/86/172
f 167/133/173 168/86/172 164/132/170 162/88/169
f 168/86/172 169/81/161 155/84/163 164/132/170
f 170/7/23 174/134/174 177/135/175 176/136/176
f 174/134/174 175/64/177 178/67/178 177/135/175
f 176/136/176 177/135/175 194/62/179 191/62/180
f 177/135/175 178/67/178 179/65/181 194/62/179
f 171/68/182 180/69/183 183/70/184 182/71/185
f 180/69/183 181/72/186 184/73/187 183/70/184
f 182/71/185 183/70/184 178/67/178 175/64/177
f 183/70/184 184/73/187 179/65/181 178/67/178
f 172/74/188 185/137/189 188/70/190 187/76/191
f 185/137/189 186/64/192 189/63/193 188/70/190
f 187/76/191 188/70/190 184/73/187 181/72/186
f 188/70/190 189/63/193 179/65/181 184/73/187
f 173/7/7 190/136/194 193/135/195 192/134/196
f 190/136/194 191/62/180 194/62/179 193/135/195
f 192/134/196 193/135/195 189/63/193 186/64/192
f 193/135/195 194/62/179 179/65/181 189/63/193
f 195/14/22 198/138/197 201/139/198 200/140/199
f 198/138/197 199/39/200 202/39/201 201/139/198
f 200/140/199 201/139/198 213/38/202 210/37/203
f 201/139/198 202/39/201 203/117/204 213/38/202
f 196/4/4 204/141/205 207/142/206 206/120/207
f 204/141/205 205/45/208 208/121/209 207/142/206
f 206/120/207 207/142/206 202/39/201 199/39/200
f 207/142/206 208/121/209 203/117/204 202/39/201
f 197/100/210 209/122/211 212/123/212 211/124/213
f 209/122/211 210/37/203 213/38/202 212/123/212
f 211/124/213 212/123/212 208/121/209 205/125/208
f 212/123/212 213/38/202 203/117/204 208/121/209
f 214/13/214 217/80/215 220/126/216 219/78/217
f 217/80/215 218/128/218 221/129/219 220/126/216
f 219/78/217 220/126/216 236/81/220 233/81/221
f 220/126/216 221/129/219 222/84/222 236/81/220
f 215/103/223 223/102/224 226/97/225 225/130/226
f 223/102/224 224/101/227 227/92/228 226/97/225
f 225/130/226 226/97/225 221/129/219 218/83/218
f 226/97/225 227/92/228 222/84/222 221/129/219
f 228/131/229 229/88/230 231/132/231 230/90/232
f 230/90/232 231/132/231 222/84/222 227/92/228
f 216/3/3 232/87/233 235/143/234 234/144/235
f 232/87/233 233/81/221 236/81/220 235/143/234
f 234/144/235 235/143/234 231/132/231 229/88/230
f 235/143/234 236/81/220 222/84/222 231/132/231
f 237/12/236 240/145/237 243/17/238 242/146/239
f 240/145/237 241/21/240 244/21/241 243/17/238
f 242/146/239 243/17/238 255/104/242 252/105/243
f 243/17/238 244/21/241 245/106/244 255/104/242
f 238/107/245 246/108/246 249/147/247 248/110/248
f 246/108/246 247/27/249 250/28/250 249/147/247
f 248/110/248 249/147/247 244/21/241 241/21/240
f 249/147/247 250/28/250 245/106/244 244/21/241
f 239/23/251 251/111/252 254/112/253 253/113/254
f 251/111/252 252/114/243 255/104/242 254/112/253
f 253/113/254 254/112/253 250/28/250 247/27/249
f 254/112/253 255/104/242 245/106/244 250/28/250
f 256/52/255 260/53/256 262/54/257 261/52/258
f 273/148/259 268/9/260 258/55/261 321/23/262 299/95/263 317/98/264 311/91/265 298/93/266 278/41/267 172/74/188 187/76/191 181/72/186 180/69/183 171/68/182 276/149/268 224/101/227 223/102/224 215/103/223 239/23/251 259/57/269
f 261/52/258 262/54/257 275/54/270 272/51/270
f 257/150/271 263/52/258 266/54/257 265/54/272
f 263/52/258 264/52/273 267/54/273 266/54/257
f 258/55/261 268/9/260 270/151/274 269/56/275
f 269/56/275 270/151/274 267/54/273 264/52/273
f 259/57/269 271/58/275 274/152/274 273/148/259
f 271/58/275 272/51/270 275/54/270 274/152/274
f 277/8/8 280/140/276 283/153/277 282/154/278
f 280/140/276 281/37/279 284/38/280 283/153/277
f 282/154/278 283/153/277 295/39/281 292/39/282
f 283/153/277 284/38/280 285/40/283 295/39/281
f 278/41/267 286/42/284 289/43/285 288/44/286
f 286/42/284 287/45/287 290/46/288 289/43/285
f 288/44/286 289/43/285 284/38/280 281/37/279
f 289/43/285 290/46/288 285/40/283 284/38/280
f 279/4/18 291/155/289 294/156/290 293/157/291
f 291/155/289 292/39/282 295/39/281 294/156/290
f 293/157/291 294/156/290 290/46/288 287/50/287
f 294/156/290 295/39/281 285/40/283 290/46/288
f 296/13/14 300/158/292 303/79/293 302/159/294
f 300/158/292 301/81/295 304/81/296 303/79/293
f 302/159/294 303/79/293 319/82/297 316/83/298
f 303/79/293 304/81/296 305/84/299 319/82/297
f 297/2/19 306/144/300 309/160/301 308/87/302
f 306/144/300 307/88/303 310/89/304 309/160/301
f 308/87/302 309/160/301 304/81/296 301/81/295
f 309/160/301 310/89/304 305/84/299 304/81/296
f 312/94/305 313/90/306 310/89/304 307/88/303
f 313/90/306 314/92/307 305/84/299 310/89/304
f 299/95/263 315/96/308 318/97/309 317/98/264
f 315/96/308 316/83/298 319/82/297 318/97/309
f 317/98/264 318/97/309 314/92/307 311/99/265
f 318/97/309 319/82/297 305/84/299 314/92/307
f 320/12/15 323/16/310 326/17/311 325/145/312
f 323/16/310 324/19/313 327/20/314 326/17/311
f 325/145/312 326/17/311 338/21/315 335/21/316
f 326/17/311 327/20/314 328/22/317 338/21/315
f 321/23/262 329/24/318 332/25/319 331/26/320
f 329/24/318 330/27/321 333/28/322 332/25/319
f 331/26/320 332/25/319 327/20/314 324/29/313
f 332/25/319 333/28/322 328/22/317 327/20/314
f 322/161/323 334/31/324 337/32/325 336/108/326
f 334/31/324 335/21/316 338/21/315 337/32/325
f 336/108/326 337/32/325 333/28/322 330/27/321
f 337/32/325 338/21/315 328/22/317 333/28/322
f 62/74/90 21/41/51 31/44/54 79/71/91
f 79/71/91 31/44/54 24/37/46 80/64/77
f 80/64/77 24/37/46 23/34/43 65/61/73
f 65/61/73 23/34/43 20/14/21 59/6/20
f 87/95/113 2/23/33 12/26/36 103/96/114
f 103/96/114 12/26/36 5/162/28 104/83/101
f 104/83/101 5/162/28 4/16/25 90/80/97
f 90/80/97 4/16/25 1/15/24 84/77/94
f 2/23/33 40/55/65 49/56/66 10/24/34
f 10/24/34 49/56/66 44/52/64 11/27/37
f 11/27/37 44/52/64 43/52/61 17/33/42
f 17/33/42 43/52/61 39/51/60 3/30/39
f 265/54/272 266/54/257 262/54/257 260/53/256
f 21/41/51 86/93/111 100/94/112 29/42/52
f 29/42/52 100/94/112 95/88/106 30/45/55
f 30/45/55 95/88/106 94/85/103 36/49/59
f 36/49/59 94/85/103 85/2/2 22/1/1
f 274/152/274 275/54/270 267/54/273 270/151/274
f 60/6/6 127/5/5 132/34/142 69/66/79
f 69/66/79 132/34/142 142/37/146 70/64/82
f 70/64/82 142/37/146 141/122/153 76/71/87
f 76/71/87 141/122/153 129/100/117 61/68/84
f 146/13/13 108/12/12 113/16/125 150/80/156
f 150/80/156 113/16/125 123/163/129 151/128/159
f 151/128/159 123/163/129 122/111/137 158/130/165
f 158/130/165 122/111/137 110/23/122 147/103/121
f 109/107/131 42/51/69 57/51/61 117/108/132
f 117/108/132 57/51/61 52/51/68 118/27/135
f 118/27/135 52/51/68 51/58/66 124/113/139
f 124/113/139 51/58/66 41/57/67 110/23/122
f 128/4/17 149/2/16 167/133/173 136/118/148
f 136/118/148 167/133/173 162/88/169 137/45/151
f 137/45/151 162/88/169 161/131/168 143/124/155
f 143/124/155 161/131/168 148/93/118 129/100/117
f 148/93/118 161/131/168 163/90/167
f 170/7/23 195/14/22 200/140/199 174/134/174
f 174/134/174 200/140/199 210/37/203 175/64/177
f 175/64/177 210/37/203 209/122/211 182/71/185
f 182/71/185 209/122/211 197/100/210 171/68/182
f 214/13/214 237/12/236 242/146/239 217/80/215
f 217/80/215 242/146/239 252/163/243 218/128/218
f 218/128/218 252/163/243 251/111/252 225/130/226
f 225/130/226 251/111/252 239/23/251 215/103/223
f 238/107/245 256/52/255 261/52/258 246/108/246
f 246/108/246 261/52/258 272/51/270 247/27/249
f 247/27/249 272/51/270 271/58/275 253/113/254
f 253/113/254 271/58/275 259/57/269 239/23/251
f 260/53/256 256/52/255 238/107/245 3/30/39 39/51/60 45/54/63 56/53/70 42/51/69 109/107/131 322/161/323 257/150/271 265/54/272
f 196/4/4 216/3/3 234/144/235 204/141/205
f 204/141/205 234/144/235 229/88/230 205/45/208
f 205/45/208 229/88/230 228/131/229 211/124/213
f 197/100/210 211/124/213 228/131/229 224/101/227 276/149/268 171/68/182
f 58/53/62 46/53/62 47/54/64 55/54/68
f 172/74/188 278/41/267 288/44/286 185/137/189
f 185/137/189 288/44/286 281/37/279 186/64/192
f 186/64/192 281/37/279 280/140/276 192/134/196
f 192/134/196 280/140/276 277/8/8 173/7/7
f 299/95/263 321/23/262 331/26/320 315/96/308
f 315/96/308 331/26/320 324/162/313 316/83/298
f 316/83/298 324/162/313 323/16/310 302/159/294
f 302/159/294 323/16/310 320/12/15 296/13/14
f 321/23/262 258/55/261 269/56/275 329/24/318
f 329/24/318 269/56/275 264/52/273 330/27/321
f 330/27/321 264/52/273 263/52/258 336/108/326
f 336/108/326 263/52/258 257/150/271 322/161/323
f 278/41/267 298/93/266 312/94/305 286/42/284
f 286/42/284 312/94/305 307/88/303 287/45/287
f 287/45/287 307/88/303 306/144/300 293/157/291
f 293/157/291 306/144/300 297/2/19 279/4/18
f 54/10/10 55/54/68 47/54/64 50/11/10
f 59/6/20 170/7/23 176/136/176 63/59/71
f 63/59/71 176/136/176 191/62/180 64/62/74
f 64/62/74 191/62/180 190/136/194 71/59/81
f 71/59/81 190/136/194 173/7/7 60/6/6
f 279/4/18 128/4/17 138/120/150 291/155/289
f 291/155/289 138/120/150 131/39/143 292/39/282
f 292/39/282 131/39/143 130/115/140 282/154/278
f 282/154/278 130/115/140 127/5/5 277/8/8
f 3/30/39 238/107/245 248/110/248 15/31/40
f 15/31/40 248/110/248 241/21/240 16/21/31
f 16/21/31 241/21/240 240/145/237 6/18/27
f 6/18/27 240/145/237 237/12/236 1/15/24
f 216/3/3 85/2/2 96/87/105 232/87/233
f 232/87/233 96/87/105 89/81/98 233/81/221
f 233/81/221 89/81/98 88/78/95 219/78/217
f 219/78/217 88/78/95 84/77/94 214/13/214
f 296/13/14 146/13/13 152/127/158 300/158/292
f 300/158/292 152/127/158 166/81/162 301/81/295
f 301/81/295 166/81/162 165/87/171 308/87/302
f 308/87/302 165/87/171 149/2/16 297/2/19
f 322/161/323 109/107/131 119/110/134 334/31/324
f 334/31/324 119/110/134 112/21/126 335/21/316
f 335/21/316 112/21/126 111/18/123 325/145/312
f 325/145/312 111/18/123 108/12/12 320/12/15
f 195/14/22 20/14/21 25/36/45 198/138/197
f 198/138/197 25/36/45 35/39/49 199/39/200
f 199/39/200 35/39/49 34/47/57 206/120/207
f 206/120/207 34/47/57 22/1/1 196/4/4
f 84/77/94 1/15/24 237/12/236 214/13/214
f 224/101/227 230/90/232 227/92/228
f 230/90/232 224/101/227 228/131/229
f 298/93/266 313/90/306 312/94/305
f 313/90/306 298/93/266 311/91/265 314/92/307
f 86/93/111 101/90/108 100/94/112
f 163/90/167 157/101/119 148/93/118
f 266/54/257 267/54/273 275/54/270 262/54/257
f 273/148/259 274/152/274 270/151/274 268/9/260
